<?xml version="1.0" encoding="utf-8"?>
<!-- Generator: Adobe Illustrator 23.0.1, SVG Export Plug-In . SVG Version: 6.00 Build 0)  -->
<svg version="1.1" id="Layer_1" xmlns="http://www.w3.org/2000/svg" xmlns:xlink="http://www.w3.org/1999/xlink" x="0px" y="0px"
	 viewBox="0 0 487.3 120.2" style="enable-background:new 0 0 487.3 120.2;" xml:space="preserve">
<style type="text/css">
	.st0{fill:#FFFFFF;}
	.st1{fill:#1FA6DB;}
</style>
<g>
	<path class="st0" d="M143.5,21.3h7.6l36.7,61.8l10,18.1h0.6c-0.5-8.9-1-17.9-1-26.6V21.3h7v89.9h-7.6l-36.6-61.9l-10.1-18h-0.6
		c0.4,8.6,1,17,1,26v53.9h-7V21.3z"/>
	<path class="st0" d="M236.8,21.3h49.7v6.3h-42.3v32.8h35.6v6.3h-35.6v38.1h43.6v6.4h-51V21.3z"/>
	<path class="st0" d="M332.7,27.6h-28.2v-6.3h64.1v6.3h-28.4v83.6h-7.5V27.6z"/>
	<path class="st0" d="M378.8,99.4l4.6-5.2c6.5,7.4,15.8,12,26,12c13.3,0,21.6-7,21.6-17.3c0-10.9-7-14.3-15.9-18.2l-13.4-5.9
		c-8-3.6-18.2-9.2-18.2-22.4c0-13.3,11.3-22.6,26.6-22.6c10.9,0,19.7,4.7,25.4,10.8l-4.2,4.8c-5.3-5.4-12.3-9-21.2-9
		c-11.5,0-19.1,6-19.1,15.3c0,10.2,8.8,14.1,15.3,16.9l13.4,5.9c10.2,4.6,18.9,10.2,18.9,23.9c0,13.8-11.5,24.4-29.1,24.4
		C396.3,112.8,386,107.4,378.8,99.4z"/>
</g>
<rect x="7.7" y="0.3" class="st1" width="21.6" height="119.9"/>
<rect x="75.6" y="0.1" class="st1" width="21.6" height="119.9"/>
</svg>
