<?xml version="1.0" encoding="utf-8"?>
<!-- Generator: Adobe Illustrator 23.0.1, SVG Export Plug-In . SVG Version: 6.00 Build 0)  -->
<svg version="1.1" id="Calque_1" xmlns="http://www.w3.org/2000/svg" xmlns:xlink="http://www.w3.org/1999/xlink" x="0px" y="0px"
	 viewBox="0 0 16 16" style="enable-background:new 0 0 16 16;" xml:space="preserve">
<style type="text/css">
	.st0{filter:url(#Adobe_OpacityMaskFilter);}
	.st1{fill-rule:evenodd;clip-rule:evenodd;fill:#FFFFFF;}
	.st2{mask:url(#mask-2_1_);fill-rule:evenodd;clip-rule:evenodd;fill:#1FA6DB;}
</style>
<desc>Created with Sketch.</desc>
<g id="Page-1">
	<g id="Artboard" transform="translate(-63.000000, -93.000000)">
		<g id="ic" transform="translate(63.000000, 93.000000)">
			<g id="Clip-2">
			</g>
			<defs>
				<filter id="Adobe_OpacityMaskFilter" filterUnits="userSpaceOnUse" x="0" y="0" width="16" height="16">
					<feColorMatrix  type="matrix" values="1 0 0 0 0  0 1 0 0 0  0 0 1 0 0  0 0 0 1 0"/>
				</filter>
			</defs>
			<mask maskUnits="userSpaceOnUse" x="0" y="0" width="16" height="16" id="mask-2_1_">
				<g class="st0">
					<polygon id="path-1_1_" class="st1" points="0,0 16,0 16,16 0,16 					"/>
				</g>
			</mask>
			<path id="Fill-1" class="st2" d="M3,9.6C1.1,7.8,1.1,4.8,3,3C3.9,2,5.1,1.6,6.3,1.6S8.7,2,9.6,3c1.8,1.8,1.8,4.8,0,6.6
				C8.7,10.5,7.5,11,6.3,11C5,11,3.8,10.5,3,9.6z M16,14.8l-4.8-4.8c1.9-2.5,1.7-6-0.5-8.3c-2.4-2.4-6.4-2.4-8.9,0
				c-2.4,2.4-2.4,6.4,0,8.9c1.2,1.2,2.8,1.8,4.4,1.8c1.4,0,2.7-0.5,3.8-1.3l4.7,4.7L16,14.8z"/>
		</g>
	</g>
</g>
</svg>
